<?xml version="1.0" encoding="iso-8859-1"?>
<!-- Generator: Adobe Illustrator 18.0.0, SVG Export Plug-In . SVG Version: 6.00 Build 0)  -->
<!DOCTYPE svg PUBLIC "-//W3C//DTD SVG 1.1//EN" "http://www.w3.org/Graphics/SVG/1.1/DTD/svg11.dtd">
<svg xmlns="http://www.w3.org/2000/svg" xmlns:xlink="http://www.w3.org/1999/xlink" version="1.1" id="Capa_1" x="0px" y="0px" viewBox="0 0 60 60" style="enable-background:new 0 0 60 60;" xml:space="preserve" width="512px" height="512px">
<path d="M39,3c-0.806,0-1.557,0.239-2.185,0.65C36.225,1.547,34.29,0,32,0c-2.13,0-3.676,0.692-4.446,1.923  C26.86,1.347,25.97,1,25,1c-1.768,0-2.956,0.779-3.553,2.329c-0.439-0.24-1.014-0.37-1.729-0.328C17.563,3.118,16,4.8,16,7v5  c0,2.28,1.622,4,3.773,4c0.007,0,0.015,0.001,0.02,0c0.553,0,1-0.447,1-1c0-0.069-0.007-0.137-0.02-0.202  c-0.001-1.613,0.064-2.831,0.125-3.616l2.05,0.382c1.883,0.35,3.838,0.578,5.824,0.681V15c0,2.206,1.794,4,4,4s4-1.794,4-4v-3.053  c0.669-0.082,1.264-0.168,1.83-0.265l3.042-0.518c0.052,0.662,0.107,1.636,0.123,2.897c0.007,0.548,0.453,0.987,1,0.987  c0.002,0,0.004,0,0.006,0c0.523-0.003,0.95-0.407,0.991-0.919c0.003-0.034,0.007-0.072,0.007-0.099L44,7C44,4.596,40.99,3,39,3z" fill="#FFFFFF"/>
<g>
	<path d="M40.063,52.298l-0.747,0.266c-0.596,0.284-1.557,0.525-2.571,0.78c-1.618,0.408-3.36,0.612-5.2,0.612h-0.723   c-1.84,0-3.582-0.204-5.177-0.606c-1.103-0.277-1.893-0.534-2.41-0.782l-0.756-0.255c-0.183,0.842-0.43,1.615-0.761,2.272   c-0.343,0.683-0.422,1.454-0.222,2.173c0.213,0.765,0.716,1.38,1.416,1.731c0.648,0.326,1.478,0.617,2.465,0.866   c1.7,0.428,3.554,0.645,5.51,0.645h0.771c1.956,0,3.81-0.217,5.51-0.645c0.987-0.249,1.816-0.54,2.465-0.866   c0.7-0.352,1.203-0.967,1.416-1.731c0.2-0.719,0.121-1.49-0.222-2.173C40.494,53.924,40.246,53.146,40.063,52.298z" fill="#FFFFFF"/>
	<path d="M43.772,15.871c-0.31,0.109-0.64,0.177-0.988,0.179c-1.65,0-2.996-1.329-3.017-2.962c-0.002-0.194-0.006-0.385-0.01-0.573   l-0.819,0.14c-0.056,0.01-0.11,0.019-0.166,0.027V14c0,3.309-2.691,6-6,6s-6-2.691-6-6v-0.894   c-1.352-0.124-2.686-0.305-3.986-0.539c-0.007,0.337-0.012,0.7-0.013,1.089c0.013,0.112,0.02,0.228,0.02,0.344   c0,1.57-1.212,2.862-2.75,2.989L19.787,17c-0.339,0-0.668-0.035-0.989-0.09c0.154,4.845,0.883,12.059,3.233,21.281   c0.016,0.087,1.288,6.78,0.754,12.125l1.281,0.432c0.26,0.131,0.828,0.352,2.067,0.663c1.437,0.362,3.014,0.546,4.688,0.546h0.723   c1.675,0,3.252-0.184,4.688-0.546c0.839-0.211,1.853-0.466,2.245-0.663l0.113-0.049l1.165-0.415   c-0.525-5.336,0.737-11.993,0.744-12.036C43.033,28.309,43.691,20.701,43.772,15.871z M31.5,45c-3.907,0-6.5-7.523-6.5-12.5   c0-4.688,2.532-11.5,6.5-11.5S38,27.812,38,32.5C38,37.477,35.407,45,31.5,45z" fill="#FFFFFF"/>
</g>
<g>
</g>
<g>
</g>
<g>
</g>
<g>
</g>
<g>
</g>
<g>
</g>
<g>
</g>
<g>
</g>
<g>
</g>
<g>
</g>
<g>
</g>
<g>
</g>
<g>
</g>
<g>
</g>
<g>
</g>
</svg>
