<?xml version="1.0" encoding="iso-8859-1"?>
<!-- Generator: Adobe Illustrator 19.0.0, SVG Export Plug-In . SVG Version: 6.00 Build 0)  -->
<svg xmlns="http://www.w3.org/2000/svg" xmlns:xlink="http://www.w3.org/1999/xlink" version="1.1" id="Capa_1" x="0px" y="0px" viewBox="0 0 489.8 489.8" style="enable-background:new 0 0 489.8 489.8;" xml:space="preserve" width="512px" height="512px">
<g>
	<g>
		<path d="M255.55,0c-135.3,0-244.9,109.6-244.9,244.9c0,132.6,105.3,240.6,237.1,244.9c-1.6-10.5-7.4-42.1-5.4-48.2    c4.7-19,50.8-8.4,76.2-73.5c8.2-14.8,21-29.9,38.1-29.9c10.1,0,31.4,4.2,33.8-15.2c0.8-22.5-14.4-45.9-4.3-66.1    c13.2-26.8,59.1-23.7,70.4-50.9c5.1-11.7,1.6-25.3,5.1-37.3c2.7-9.7,9.3-17.5,17.5-23.3C441.35,59.9,355.45,0,255.55,0z     M250.85,53.3c1.6-5.1,7.4-8.2,12.4-6.2c5.8,1.9,11.3,5.4,15.2,10.1c3.5,4.3,3.1,10.5-1.2,14c-6.4,4.9-12.1,1.2-14-1.2    c-1.6-1.9-3.5-3.1-5.8-3.9C252.05,63.7,249.35,58.3,250.85,53.3z M251.25,115.5c4.3-3.1,10.5-2.3,13.6,2.3    c3.1,4.7,4.3,10.5,2.3,15.9c-1.6,4.3-5.1,6.6-9.3,6.6c-7,0.1-10.9-7-9.7-11.7C245.85,124,246.95,118.6,251.25,115.5z M191.35,64.1    c5.4-1.2,10.5,2.3,11.7,7.4l1.9,7.8c1.2,5.4-2.3,10.5-7.4,11.7c-6.6,1.4-10.9-2.7-12.1-7.4l-1.9-7.8    C182.45,70.7,185.95,65.3,191.35,64.1z M174.25,254.2c2.3-5.1,8.2-7,13.2-4.7c7.4,3.9,13.2,10.9,14.8,19    c1.2,5.4-2.3,10.5-7.8,11.7c-6.2,1.4-10.5-2.7-11.7-7.4c-0.4-2.3-1.9-4.3-4.3-5.4C173.95,265.1,171.95,258.9,174.25,254.2z     M74.35,246.5c0,5.4-4.3,9.7-9.7,9.7s-9.7-4.3-9.7-9.7v-10.9c0-5.4,4.3-9.7,9.7-9.7s9.7,4.3,9.7,9.7V246.5z M78.25,188.9    c-5.4-1.2-8.6-6.6-7.4-11.7c1.9-8.2,8.2-14.8,16.3-17.1c5.4-1.6,10.9,1.6,12.1,7c1.6,5.4-1.6,10.9-7,12.1    c-0.8,0.4-1.9,1.2-1.9,2.3C87.25,191.4,79.05,188.9,78.25,188.9z M107.05,348.7c-6.9,3.8-11.7,0-13.6-2.7    c-2.7-4.3-6.2-8.2-9.7-11.7c-3.9-3.9-3.9-10.1,0-14s10.1-3.9,14,0c4.3,4.3,8.6,9.3,12.1,14.4    C112.85,339.4,111.75,345.6,107.05,348.7z M128.45,248c-1.2,1.6-1.6,3.9-1.2,5.8c1.2,5.4-4.5,12.2-9.7,12.1    c-4.7-0.2-8.6-3.1-9.7-7.8c-1.6-7,0-14.8,3.9-20.6c3.1-4.7,8.9-5.8,13.6-3.1C129.95,237.1,131.55,243.3,128.45,248z M141.65,117.4    c-0.4,10.4-9.7,10.1-9.7,10.1c-5.4,0-9.7-4.3-9.7-9.3c-0.4-9.3,5.1-18.7,13.6-23.3c4.7-2.3,10.9-0.8,13.2,4.3    c2.3,4.7,0.8,10.9-4.3,13.2C142.85,113.5,141.65,115.5,141.65,117.4z M152.95,146.6c5.4,0,10.1,4.3,10.1,9.7c0,7,2.3,14,6.6,19.8    c3.1,4.3,2.3,10.5-1.9,14c-8,4-11.7,0.4-13.6-1.9c-6.6-8.9-10.5-20.2-10.5-31.5C143.15,150.8,147.45,146.6,152.95,146.6z     M164.55,337l-10.5-12.8c-3.5-4.3-2.7-10.5,1.2-14c4.3-3.5,10.5-2.7,14,1.2l10.5,12.8c3.5,4.3,2.7,10.5-1.2,14    C172.75,343.3,166.55,339.4,164.55,337z M217.85,415.6c-1.2,4.3-6.2,8.4-12.1,6.6l-21.4-6.2c-5.1-1.6-8.2-7-6.6-12.1    c1.6-5.1,7-8.2,12.1-6.6l21.4,6.2C216.25,405.1,219.35,410.5,217.85,415.6z M249.35,213.4c-1.2-2.7-3.1-5.1-5.1-7    c-4.3-3.5-5.1-9.7-1.6-14s9.7-5.1,14-1.6c5.1,3.9,8.9,8.9,11.3,14.8c1.9,5.1-0.4,10.9-5.4,12.8    C255.45,221,250.85,216.9,249.35,213.4z M273.45,360h-13.6c-5.4,0-9.7-4.3-9.7-9.7s4.3-9.7,9.7-9.7h13.6c5.4,0,9.7,4.3,9.7,9.7    C283.15,355.3,278.85,360,273.45,360z M287.05,286.1h-13.6c-5.4,0-9.7-4.3-9.7-9.7s4.3-9.7,9.7-9.7h13.6c5.4,0,9.7,4.3,9.7,9.7    S292.45,286.1,287.05,286.1z M337.15,68.4c5.4-1.2,10.5,2.3,11.7,7.8c0.4,2.7,1.9,5.4,3.9,7.4c3.9,3.9,3.5,10.1-0.4,14    c-1.9,1.9-7.4,5.2-14-0.4c-4.3-4.7-7.4-10.5-8.9-17.1C328.65,75,331.75,69.6,337.15,68.4z M331.35,173c-5.9,0.2-10.1-3.9-10.5-8.9    l-1.6-17.9c-0.4-5.4,3.5-10.1,8.9-10.5s10.1,3.5,10.5,8.9l1.6,17.9C340.65,167.9,336.75,172.6,331.35,173z M356.25,236.3    c-1.2,4.7-5.1,8.2-9.7,7.8c-7.7-0.7-10.9-7-9.7-12.1c0.8-3.5,0.4-7-1.2-10.1c-2.3-5.1-0.4-10.9,4.7-13.2s10.9-0.4,13.2,4.7    C356.95,220,358.15,228.6,356.25,236.3z M397.05,160.2c-6.3,0.4-10.5-3.5-10.9-8.6c0-1.2-1.2-2.3-1.9-2.7    c-5.1-2.3-7.4-8.2-5.1-13.2c2.3-5.1,8.2-7.4,13.2-5.1c7.4,3.1,12.8,10.5,13.6,18.3C406.35,154.3,402.45,159.4,397.05,160.2z" fill="#FFFFFF"/>
	</g>
</g>
<g>
</g>
<g>
</g>
<g>
</g>
<g>
</g>
<g>
</g>
<g>
</g>
<g>
</g>
<g>
</g>
<g>
</g>
<g>
</g>
<g>
</g>
<g>
</g>
<g>
</g>
<g>
</g>
<g>
</g>
</svg>
