<?xml version="1.0" encoding="utf-8"?>
<!-- Generator: Adobe Illustrator 16.0.0, SVG Export Plug-In . SVG Version: 6.00 Build 0)  -->
<!DOCTYPE svg PUBLIC "-//W3C//DTD SVG 1.1//EN" "http://www.w3.org/Graphics/SVG/1.1/DTD/svg11.dtd">
<svg xmlns="http://www.w3.org/2000/svg" xmlns:xlink="http://www.w3.org/1999/xlink" version="1.1" id="Layer_1" x="0px" y="0px" width="512px" height="512px" viewBox="0 0 512 512" enable-background="new 0 0 512 512" xml:space="preserve">
<g>
	<path d="M65.264,85.262c-9.895-9.891-15.784-22.482-17.581-35.699H40.6c-12.736,0-24.213,7.668-29.09,19.434   c-4.869,11.766-2.173,25.304,6.825,34.304l386.223,386.231c9,9.007,22.538,11.702,34.304,6.825   c11.766-4.869,19.434-16.346,19.434-29.083v-3.052c-11.601-2.5-22.281-8.188-30.863-16.774L65.264,85.262z" fill="#FFFFFF"/>
	<path d="M471.53,11.641H109.36c-11.933,0-22.698,7.195-27.269,18.223c-4.571,11.029-2.045,23.724,6.4,32.171l362.17,362.185   c5.646,5.646,13.202,8.647,20.886,8.647c3.801,0,7.635-0.739,11.284-2.247c11.029-4.572,18.222-15.334,18.222-27.277V41.166   C501.053,24.859,487.836,11.641,471.53,11.641z M432.958,290.757c-3.295,0.682-5.99,2.936-7.242,6.032   c-1.251,3.097-0.874,6.585,1.011,9.352l38.219,55.967c5.116,7.492,3.191,17.71-4.299,22.827c-2.832,1.941-6.057,2.863-9.248,2.863   c-5.245,0-10.402-2.502-13.58-7.162l-38.225-55.975c-8.102-11.871-9.713-26.893-4.332-40.191   c5.366-13.291,16.963-22.972,31.016-25.883c7.025-1.452,12.311-7.435,12.898-14.565c0.352-4.34-1.084-8.711-3.956-11.991   c-2.863-3.28-7.009-5.302-11.365-5.534l-81.601-4.339c-15.841-0.841-30.326-8.646-39.735-21.415   c-11.894-16.153-13.667-37.304-4.627-55.197c9.039-17.895,27.11-29.01,47.169-29.01H421c7.692,0,13.956-6.265,13.956-13.957   c0-7.362-5.759-13.483-13.105-13.939L169.227,73.095c-9.056-0.554-15.944-8.35-15.385-17.405   c0.562-9.046,8.229-16.04,17.405-15.383l252.624,15.544c24.64,1.516,43.937,22.041,43.937,46.728   c0,25.81-20.997,46.81-46.808,46.81h-75.938c-7.589,0-14.43,4.202-17.847,10.971c-3.425,6.778-2.75,14.782,1.75,20.902   c3.561,4.819,9.04,7.771,15.038,8.093l81.61,4.338c13.169,0.707,25.688,6.802,34.36,16.732c8.67,9.93,13.024,23.154,11.942,36.292   C470.142,268.275,454.125,286.387,432.958,290.757z" fill="#FFFFFF"/>
</g>
</svg>
