<?xml version="1.0" encoding="iso-8859-1"?>
<!-- Generator: Adobe Illustrator 18.1.1, SVG Export Plug-In . SVG Version: 6.00 Build 0)  -->
<svg xmlns="http://www.w3.org/2000/svg" xmlns:xlink="http://www.w3.org/1999/xlink" version="1.1" id="Capa_1" x="0px" y="0px" viewBox="0 0 374.98 374.98" style="enable-background:new 0 0 374.98 374.98;" xml:space="preserve" width="512px" height="512px">
<g>
	<path d="M27.838,255.179h319.305c2.762,0,5-2.238,5-5c0-83.041-61.796-151.908-141.814-163.061   c-2.489-10.307-11.768-17.965-22.838-17.965s-20.349,7.658-22.838,17.965C84.634,98.271,22.838,167.138,22.838,250.179   C22.838,252.94,25.076,255.179,27.838,255.179z M67.321,181.7c9.809-19.012,22.691-34.047,38.29-44.686   c2.967-2.023,7.01-1.259,9.032,1.707c2.023,2.965,1.259,7.009-1.707,9.032c-13.794,9.409-25.254,22.836-34.062,39.908   c-1.154,2.237-3.427,3.521-5.782,3.521c-1.004,0-2.021-0.233-2.975-0.725C66.927,188.811,65.675,184.891,67.321,181.7z    M52.042,227.338c0.044-0.325,1.126-8.082,4.591-19.327c1.058-3.43,4.693-5.354,8.126-4.298c3.431,1.057,5.355,4.695,4.298,8.126   c-3.156,10.241-4.126,17.19-4.135,17.259c-0.445,3.258-3.233,5.621-6.432,5.621c-0.293,0-0.589-0.02-0.888-0.061   C54.045,234.172,51.556,230.895,52.042,227.338z" fill="#FFFFFF"/>
	<path d="M357.523,270.911H17.457C7.816,270.911,0,278.728,0,288.368c0,9.643,7.816,17.459,17.457,17.459h340.066   c9.643,0,17.457-7.816,17.457-17.459C374.98,278.728,367.166,270.911,357.523,270.911z" fill="#FFFFFF"/>
</g>
<g>
</g>
<g>
</g>
<g>
</g>
<g>
</g>
<g>
</g>
<g>
</g>
<g>
</g>
<g>
</g>
<g>
</g>
<g>
</g>
<g>
</g>
<g>
</g>
<g>
</g>
<g>
</g>
<g>
</g>
</svg>
