<?xml version="1.0" encoding="iso-8859-1"?>
<!-- Generator: Adobe Illustrator 19.0.0, SVG Export Plug-In . SVG Version: 6.00 Build 0)  -->
<svg xmlns="http://www.w3.org/2000/svg" xmlns:xlink="http://www.w3.org/1999/xlink" version="1.1" id="Capa_1" x="0px" y="0px" viewBox="0 0 489.965 489.965" style="enable-background:new 0 0 489.965 489.965;" xml:space="preserve" width="512px" height="512px">
<g>
	<g>
		<g>
			<path d="M386.483,138.065c-5.8-12.1-44.7-73.5-47.1-76.6c-14-15.6-28-31.5-45.1-41.6c-11.1-5.9-14.3-14.8-17-17.1     c-7.8-7.8-19.1,3.1-29.2,5.8c-9.3,2.3-19.4-3.1-28.8-0.8c-4.7,0.8-8.9,4.3-13.2,7.8c-18.7,15.2-36.9,33.4-44.3,58.3     c-2.7,9.7-5.1,21.4-13.2,25.3c-5.8,2.7-12.1,0-18.3,1.9c-11.7,3.9-15.6,22.6-26.8,27.6c-3.5,1.6-12.5-1-17.5,15.9     c-4.3,12.4-8.9,24.1-9.3,35.8h327.3C398.583,166.065,393.183,151.665,386.483,138.065z M207.283,146.165     c-1.9,3.1-6.7,6.8-13.6,3.1c-7.8-4.7-15.6-8.9-23.7-12.8c-5.1-2.3-7-8.2-4.7-13.2c2.3-5.1,8.2-7,13.2-4.7     c8.6,4.3,16.7,8.6,24.9,13.6C208.383,135.365,209.983,141.565,207.283,146.165z M307.583,104.165c0,5.4-4.3,9.7-9.7,9.7     c-5.4,0-9.7-4.3-9.7-9.7v-25.6c0-5.4,4.3-9.7,9.7-9.7c5.4,0,9.7,4.3,9.7,9.7V104.165z M339.483,154.365l-14,5.1     c-6.7,2.3-11.3-1.6-12.8-5.8c-1.9-5.1,0.8-10.9,5.8-12.8l14-5.1c5.1-1.9,10.9,0.8,12.8,5.8     C347.283,146.565,344.883,152.465,339.483,154.365z" fill="#FFFFFF"/>
			<path d="M413.383,200.265h-336.8c4.7,81.7,67.7,147.8,148.2,157.5v71.6l-60.7,60.6h161.8l-60.7-60.7v-71.6     C345.683,348.065,408.683,281.965,413.383,200.265z" fill="#FFFFFF"/>
		</g>
	</g>
</g>
<g>
</g>
<g>
</g>
<g>
</g>
<g>
</g>
<g>
</g>
<g>
</g>
<g>
</g>
<g>
</g>
<g>
</g>
<g>
</g>
<g>
</g>
<g>
</g>
<g>
</g>
<g>
</g>
<g>
</g>
</svg>
