<?xml version="1.0" encoding="iso-8859-1"?>
<!-- Generator: Adobe Illustrator 18.1.1, SVG Export Plug-In . SVG Version: 6.00 Build 0)  -->
<svg xmlns="http://www.w3.org/2000/svg" xmlns:xlink="http://www.w3.org/1999/xlink" version="1.1" id="Capa_1" x="0px" y="0px" viewBox="0 0 36.053 36.053" style="enable-background:new 0 0 36.053 36.053;" xml:space="preserve" width="512px" height="512px">
<g>
	<g id="b104_cocktail">
		<path d="M22.724,18.803c0-1.42-1.523-6.408-0.049-10.281L22.574,8.34h-2.635l1.323-3.412l4.272,1.865    L22.869,0l-6.791,2.666l4.293,1.871L18.895,8.34h-8.226l-0.101,0.181c1.242,6.461-0.049,8.864-0.049,10.282    c0,3.584,2.266,6.559,5.209,7.066v8.848c-1.762,0.072-3.076,0.34-3.076,0.658c0,0.375,1.792,0.678,3.998,0.678    c2.212,0,4.002-0.303,4.002-0.678c0-0.318-1.312-0.586-3.074-0.658V25.86C20.49,25.32,22.724,22.357,22.724,18.803z M21.861,9.055    c-0.479,0.783-0.51,2.516-0.395,4.314l0,0c0,0-1.535-1.074-3.154-0.838l1.348-3.477h2.201V9.055z M11.777,13.225    c0.078-1.666,0-3.273-0.495-4.17h7.335l-1.531,3.951c-0.1,0.064-0.195,0.137-0.291,0.219    C15.169,14.617,12.667,13.643,11.777,13.225z" fill="#FFFFFF"/>
	</g>
</g>
<g>
</g>
<g>
</g>
<g>
</g>
<g>
</g>
<g>
</g>
<g>
</g>
<g>
</g>
<g>
</g>
<g>
</g>
<g>
</g>
<g>
</g>
<g>
</g>
<g>
</g>
<g>
</g>
<g>
</g>
</svg>
