<?xml version="1.0" encoding="iso-8859-1"?>
<!-- Generator: Adobe Illustrator 19.0.0, SVG Export Plug-In . SVG Version: 6.00 Build 0)  -->
<svg xmlns="http://www.w3.org/2000/svg" xmlns:xlink="http://www.w3.org/1999/xlink" version="1.1" id="Capa_1" x="0px" y="0px" viewBox="0 0 490.038 490.038" style="enable-background:new 0 0 490.038 490.038;" xml:space="preserve" width="512px" height="512px">
<g>
	<g>
		<g>
			<path d="M490,391.869c-0.8-4.3-4.7-7.4-8.9-6.6l-216.6,33.8l205.7-80.5c3.9-1.6,5.8-6.2,4.3-10.1s-6.2-5.8-10.1-4.3l-271.9,106.2     l-116.3,18.3c-4.3,0.8-7.4,4.7-6.6,8.9c0.8,3.9,4.5,7.3,8.9,6.6l46.3-7.4l-42,16.3c-3.9,1.6-5.8,6.2-4.3,10.1     c1.2,3.1,5.7,6.5,10.1,4.7l108.1-42.4l286.6-44.7C487.6,400.069,490.4,396.169,490,391.869z" fill="#FFFFFF"/>
			<path d="M105,375.969h155.2v-25.3c61.8-29.2,105-92.2,105-165.3H0c0,73.1,42.8,136.1,105,165.3V375.969z" fill="#FFFFFF"/>
			<path d="M345.3,163.969c-3.1-10.9-20.2-12.1-23.7-22.6c1.6-14.4-15.2-15.6-15.9-26.4c0.3-9.2-10.5-10.1-12.8-15.2     c-1.2-2.3-0.4-5.1-1.2-7.4c-1.9-5.1-8.9-5.8-11.3-10.5c-2.3-2.3,1.3-12.2-7.4-20.6l-23.7-30.3c-5.4-7-14.8-8.6-22.9-5.1     c0,0-9.1,2.5-27.6,0c-6.2-0.4-14-1.9-15.6-7.8c0-9.4-4.7-7.8-5.8-7.8c-7.4,0.8-24.2,4.6-28.4,2.3c-4.3-2.3-3.9-10.1-8.6-10.9     c-7,0-18.7,22.2-24.5,32.7c-6.2,10.5-15.9,23.4-35.8,21c-9.3,1.7-13.2,13.4-14.8,22.7s-4.7,21-14,23.3     c-18.1,0.8-25.3,19.4-27.2,28c-1.9,7-0.1,16-10.9,36.6h332.9C345.7,165.169,345.7,164.769,345.3,163.969z" fill="#FFFFFF"/>
		</g>
	</g>
</g>
<g>
</g>
<g>
</g>
<g>
</g>
<g>
</g>
<g>
</g>
<g>
</g>
<g>
</g>
<g>
</g>
<g>
</g>
<g>
</g>
<g>
</g>
<g>
</g>
<g>
</g>
<g>
</g>
<g>
</g>
</svg>
