<?xml version="1.0" encoding="iso-8859-1"?>
<!-- Generator: Adobe Illustrator 19.0.0, SVG Export Plug-In . SVG Version: 6.00 Build 0)  -->
<svg xmlns="http://www.w3.org/2000/svg" xmlns:xlink="http://www.w3.org/1999/xlink" version="1.1" id="Capa_1" x="0px" y="0px" viewBox="0 0 496.8 496.8" style="enable-background:new 0 0 496.8 496.8;" xml:space="preserve" width="512px" height="512px">
<g>
	<g>
		<g>
			<polygon points="0,371.58 50.5,438.58 446.3,438.58 496.8,371.58    " fill="#FFFFFF"/>
			<path d="M313.8,265.88c7.1,9.5,32,42.2,78.4,6.3c18.1-15.8,32.3-37,35.9-60.7c11.6-76.6,0.4-80.4-0.8-80.8     c-10.6-6.3-24.8-2.8-35.5,4.3c-27.8,26.6-36.2,24.7-74.1,46.1C304.8,191.38,282.4,223.08,313.8,265.88z" fill="#FFFFFF"/>
			<path d="M249.2,91.68l-5.1,17.3c10.8-0.9,21.6,4.6,25.6,9.5l5.5-18.9c11.1,5.1,21.7-1.2,24-10.2c2.8-9.1-2.4-18.5-11.4-20.9     c-8.7-2.8-16,2.3-18.9,5.9l0,0c-0.4-7.4-4.3-13-13.4-15.4c-9.1-2.8-18.5,2.4-20.9,11.4C232.2,79.08,237.8,89.88,249.2,91.68z" fill="#FFFFFF"/>
			<path d="M450.2,126.78l11.4-15.8c8.6,8.2,20.5,5.9,26-1.6s3.9-18.1-3.5-23.7s-15.8-3-20.1-0.8l0,0c1.1-6.6,0-13.8-7.5-18.9     c-7.5-5.5-18.1-3.9-23.7,3.5c-5.5,7.5-4.3,20.2,6.3,25.2l-10.5,14.7C440,112.58,448.4,120.68,450.2,126.78z" fill="#FFFFFF"/>
			<path d="M261,143.28c-4.5-13.5-9.5-13.8-10.6-13.8c-12.2-2.4-27.5,6.1-38.6,26C213.7,154.78,238.3,145.18,261,143.28z" fill="#FFFFFF"/>
			<path d="M36.3,332.48c13.4,9.5,30.7,11.4,44.9,19.3H475c2.4-35.1-15.4-76.5-37.8-107.2c-37.8,69.4-84.4,63.9-84.4,63.9     c-27.2,0.4-43.8-16.2-55.2-30.7c-19.6-26.6-22.1-50.4-18.3-69.6c5-25.4,28.5-44.3,29.7-45.1c-136.7-15.5-213.2,120.6-218.3,123.7     c-18.5,11.8-46.5-10.2-63.1,3.9C15,301.38,22.9,323.08,36.3,332.48z" fill="#FFFFFF"/>
		</g>
	</g>
</g>
<g>
</g>
<g>
</g>
<g>
</g>
<g>
</g>
<g>
</g>
<g>
</g>
<g>
</g>
<g>
</g>
<g>
</g>
<g>
</g>
<g>
</g>
<g>
</g>
<g>
</g>
<g>
</g>
<g>
</g>
</svg>
