<?xml version="1.0" encoding="iso-8859-1"?>
<!-- Generator: Adobe Illustrator 16.0.0, SVG Export Plug-In . SVG Version: 6.00 Build 0)  -->
<!DOCTYPE svg PUBLIC "-//W3C//DTD SVG 1.1//EN" "http://www.w3.org/Graphics/SVG/1.1/DTD/svg11.dtd">
<svg xmlns="http://www.w3.org/2000/svg" xmlns:xlink="http://www.w3.org/1999/xlink" version="1.1" id="Capa_1" x="0px" y="0px" width="512px" height="512px" viewBox="0 0 47.415 47.416" style="enable-background:new 0 0 47.415 47.416;" xml:space="preserve">
<g>
	<path d="M45.346,17.226c-0.438-0.062-0.5-0.25-0.312-0.812c0.188-0.562-0.062-1.125-0.25-1.375c-0.188-0.25,0.438-0.812,0.875-2   c0.438-1.188,0.625-2.5-1-3.688s-4.625,0.25-5.562,0.938c-0.938,0.688-0.375-1.5-0.562-2.188c-0.187-0.688-1.625-1.25-3-1   s-3.25,1.938-3.625,2.188s-0.626-1.313-0.563-2.063c0.062-0.75-1.125-1.875-2.812-1.625c-1.687,0.25-4.062,3.062-4.688,3.688   c-0.626,0.626-1.438-0.375-1.938-0.625s-2-1.5-3.312-0.562s-2.25,4.062-2.562,4.875s-0.688,0.375-1.438-0.188   s-1.688-1.125-3.312,0.375s-1.312,4.938-1.75,6.062s-0.562,0.312-1.25-0.312s-1-1.625-2.5-1.188s-0.343,6.144-1.562,6   c-1.062-0.125-2.75,1.812-3.25,3c-0.5,1.188-1.5,6.062-0.625,9.312s3.25,5.75,6.562,5.812c3.312,0.062,13.125-3.375,19.75-5.75   s13.312-5.875,17-8.438c3.688-2.563,2.5-5.062,2.312-5.438c-0.188-0.376,0.625-1.062,1.312-2.438   C47.97,18.409,45.783,17.289,45.346,17.226z M39.93,27.933c-3.625,2.417-10.708,5.584-15.583,7.5   c-4.875,1.917-10.875,3.292-14.542,4.042s-4.667,0.25-6.417-1.167c-1.75-1.416-1.833-5.708-1.208-8.291   c0.625-2.584,2.127-4.199,2.667-4.334c0.667-0.166,1.5,2.959,2.125,4.167s-0.583,1.5-1.333,2.667   c-0.75,1.166,0.375,1.875,0.542,2.333s-0.125,0.417-0.583,0.708c-0.458,0.292-0.667-0.166-1.25-1.208s-0.375-4.083-0.25-4.625   s0.583-2.125-0.5-1.083c-1.083,1.041-1.083,4.041-0.833,6.083s2.167,2.833,3.583,2.083c1.417-0.75,3.792-5.583,5.625-8.625   c1.833-3.041,4.875-6.708,10.042-9.583c5.167-2.875,11.25-3.417,15.875-1.875s5.875,4.917,6.333,6.167   C44.68,24.143,43.555,25.517,39.93,27.933z M44.013,13.768c-0.5-0.084-1.542-0.625-2.75-0.167s-3.458,1.458-4.042,0.792   c-0.583-0.667-0.458-2.5-2.083-3s-3.708,0.041-4.708,0.791s-0.792,1.375-1.958,1c-1.167-0.375-1.958-1.75-3.917-1.583   c-1.959,0.167-2.583,1.458-3.667,2.917c-1.083,1.458-1.208,2.083-1.833,1.791c-0.625-0.291-2.042-1.208-3.458-0.625   c-1.417,0.584-2,2.125-2.25,3.709c-0.25,1.583-0.083,2.291-1.25,2.625c-1.167,0.333-4.042-0.334-6.25,1c0,0-0.375,0-0.375-1.084   c0-1.083,0.375-2.875,0.833-2.916c0.458-0.042,1.208,0.5,1.875,1.166c0.667,0.667,1.625,0.667,2.167-0.333s0.833-3.167,1.042-3.917   c0.208-0.75,0.75-2.083,1.292-2.333s0.875,0.25,1.917,0.708c1.042,0.459,1.083,0.709,1.583,0.25c0.5-0.458,1.417-3.291,1.917-4   c0.5-0.708,1.083-1.916,1.833-1.583s2.958,1.958,3.917,1.625c0.958-0.333,2.958-2.125,3.458-2.75s1.75-1.208,2.5-1   s0.667,0.5,0.542,1.333c-0.125,0.834,0.667,2.167,1.292,2.375c0.625,0.209,1.125-0.375,1.917-1.041   c0.792-0.667,2.625-1.709,3.417-1.292s0.375,1.542,0.417,1.875s0.5,1.875,1.917,1.25s3.833-1.542,4.625-1.25s1.083,0.917,1,1.583   C44.846,12.351,44.513,13.851,44.013,13.768z M12.345,34.767c-0.354,0.03-1.583,0.666-1.25,1.208s1.042,0.542,1.708,0.167   S13.304,34.683,12.345,34.767z M16.72,32.225c-0.5,0.021-1.708,1.375-0.5,1.917c1.208,0.541,1.625-0.959,1.583-1.25   C17.762,32.6,17.72,32.183,16.72,32.225z M14.72,28.767c-0.346-0.139-0.833-0.209-1.167,0.166s-0.208,0.917,0.333,1.209   c0.542,0.291,0.833,0.166,1.125-0.292C15.304,29.392,15.137,28.933,14.72,28.767z M19.012,26.642   c-0.425-0.015-1.25,0.458-0.708,1.375c0.542,0.916,1.083,0.5,1.583,0.166C20.387,27.85,20.22,26.683,19.012,26.642z M19.262,23.809   c0.333-0.291,0.333-1.125-0.625-1.041c-0.546,0.047-1.25,0.541-0.792,0.875C18.304,23.976,18.929,24.101,19.262,23.809z    M24.43,22.101c-0.544,0.197-0.917,1.042-0.375,1.5c0.542,0.458,1.208,0.167,1.833-0.083S27.305,21.059,24.43,22.101z    M23.304,28.933c-0.69,0.23-1.458,1.25-0.75,1.5s1.667-0.208,2.042-0.625C24.971,29.392,24.555,28.517,23.304,28.933z    M23.929,32.475c-0.556,0-0.083,0.375-0.708,0.708c-0.625,0.334-0.917,0.792-0.292,0.875c0.625,0.084,1.125-0.125,1.417-0.5   C24.638,33.183,24.388,32.475,23.929,32.475z M31.18,25.6c-0.727,0.048-1.458,0.458-1.25,1.292   c0.208,0.833,1.292,0.958,2.042,0.375C32.721,26.683,31.805,25.558,31.18,25.6z M33.055,21.184c0.25-0.166,0.625-0.458,0.25-0.666   c-0.788-0.438-1.458,0.083-2,0.666c-0.542,0.584-0.083,1.042,0.583,1.459c0.667,0.416,1.75,0,1.667-0.417   S32.805,21.351,33.055,21.184z M37.888,19.726c-0.673-0.096-0.833,0.083-0.375,0.667c0.458,0.583,0.958,0.541,1.042,0.291   S38.471,19.809,37.888,19.726z M37.096,23.393c-0.625,0.312-0.792,0.541-0.417,0.875c0.375,0.333,1.125,0.333,1.375,0.041   C38.305,24.018,37.93,22.976,37.096,23.393z M36.221,27.017c-0.388-0.155-1.167,0.333-0.667,0.958s0.833,0.542,1.125,0.25   S36.846,27.267,36.221,27.017z M41.596,22.893c-0.548-0.219-1.458,0.583-1.208,1.208c0.25,0.625,0.708,0.792,1.083,0.542   C41.846,24.393,42.638,23.309,41.596,22.893z" fill="#FFFFFF"/>
</g>
<g>
</g>
<g>
</g>
<g>
</g>
<g>
</g>
<g>
</g>
<g>
</g>
<g>
</g>
<g>
</g>
<g>
</g>
<g>
</g>
<g>
</g>
<g>
</g>
<g>
</g>
<g>
</g>
<g>
</g>
</svg>
