<?xml version="1.0" encoding="iso-8859-1"?>
<!-- Generator: Adobe Illustrator 18.1.1, SVG Export Plug-In . SVG Version: 6.00 Build 0)  -->
<svg xmlns="http://www.w3.org/2000/svg" xmlns:xlink="http://www.w3.org/1999/xlink" version="1.1" id="Capa_1" x="0px" y="0px" viewBox="0 0 20.925 20.925" style="enable-background:new 0 0 20.925 20.925;" xml:space="preserve" width="512px" height="512px">
<g>
	<path d="M20.264,5.242L5.241,20.263c0.883,0.883,2.311,0.883,3.192,0L20.264,8.434   C21.145,7.551,21.145,6.123,20.264,5.242z" fill="#FFFFFF"/>
	<path d="M12.492,0.661l-11.83,11.83c-0.881,0.881-0.881,2.312,0,3.191L15.684,0.661   C14.803-0.22,13.373-0.221,12.492,0.661z" fill="#FFFFFF"/>
	<path d="M19.397,5.23c1.022-1.023,1.023-2.68,0-3.702s-2.681-1.023-3.704-0.001L1.971,15.251   c-1.022,1.023-1.021,2.681,0.001,3.704c1.022,1.021,2.679,1.021,3.701-0.001C5.673,18.954,19.397,5.23,19.397,5.23z M5.079,17.87   c-0.449,0.101-0.857-0.195-1.335-0.671c-0.003-0.005-0.005-0.007-0.009-0.011L4.4,16.525c0.002,0.003,0.005,0.005,0.007,0.007   c0.242,0.243,0.38,0.346,0.454,0.388c0.1-0.161,0.24-0.557,0.366-0.913c0.145-0.414,0.323-0.918,0.57-1.494   c0.5-1.171,0.833-1.688,1.706-1.389c0.193,0.065,0.407,0.14,0.803,0.005c-0.008-0.014-0.015-0.025-0.023-0.041   c-0.299-0.527-0.034-1.317,0.887-2.634c1.642-2.356,2.397-2.428,3.497-2.346c0.527,0.037,1.074,0.078,1.998-0.357   c2.329-1.093,1.58-4.016,1.573-4.045l0.907-0.241c0.34,1.278,0.345,3.998-2.08,5.137c-1.148,0.54-1.88,0.485-2.467,0.442   c-0.772-0.056-1.24-0.091-2.658,1.947c-0.903,1.292-0.833,1.642-0.831,1.655c-0.003-0.042,0.141-0.051,0.197-0.055   c0.398-0.027,0.539,0.173,0.588,0.345c0.11,0.387-0.115,0.506-0.784,0.857c-0.926,0.49-1.473,0.369-1.914,0.217   c-0.045-0.015-0.084-0.031-0.124-0.037c0.039,0.015-0.094,0.165-0.414,0.908c-0.235,0.555-0.406,1.04-0.547,1.438   C5.796,17.212,5.606,17.749,5.079,17.87z" fill="#FFFFFF"/>
</g>
<g>
</g>
<g>
</g>
<g>
</g>
<g>
</g>
<g>
</g>
<g>
</g>
<g>
</g>
<g>
</g>
<g>
</g>
<g>
</g>
<g>
</g>
<g>
</g>
<g>
</g>
<g>
</g>
<g>
</g>
</svg>
