<?xml version="1.0" encoding="iso-8859-1"?>
<!-- Generator: Adobe Illustrator 18.1.1, SVG Export Plug-In . SVG Version: 6.00 Build 0)  -->
<svg xmlns="http://www.w3.org/2000/svg" xmlns:xlink="http://www.w3.org/1999/xlink" version="1.1" id="Capa_1" x="0px" y="0px" viewBox="0 0 41.149 41.149" style="enable-background:new 0 0 41.149 41.149;" xml:space="preserve" width="512px" height="512px">
<g>
	<g id="b54_pizza">
		<path d="M16.104,0.5C10.977,1.639,6.571,4.682,3.67,8.861c3.372,2.083,8.396,5.299,15.929,10.244L16.104,0.5z M11.634,4.826    c0.634,0,1.149,0.515,1.149,1.15s-0.516,1.149-1.149,1.149s-1.147-0.515-1.147-1.149C10.486,5.341,11,4.826,11.634,4.826z     M13.106,10.665c-1.499,0-2.712-0.387-2.712-0.862c0-0.477,1.213-0.863,2.712-0.863c1.497,0,2.71,0.386,2.71,0.863    C15.816,10.277,14.604,10.665,13.106,10.665z" fill="#FFFFFF"/>
		<path d="M20.576,0c-1.061,0-2.096,0.102-3.114,0.259l4.091,21.784l-1.357-0.893c-5.102-3.358-12.191-7.954-17.268-11.114    C1.082,13.119,0,16.715,0,20.573c0,11.362,9.211,20.576,20.576,20.576c11.362,0,20.572-9.214,20.572-20.576S31.938,0,20.576,0z     M4.745,20.682c-0.562-0.601-0.849-1.469-1.019-2.254c-0.234-1.059,2.438-1.741,2.664-0.715c0.146,0.665,0.342,1.376,0.817,1.884    C7.982,20.427,5.442,21.429,4.745,20.682z M9.009,27.914C8.965,27.833,8.9,27.712,8.83,27.587    c-0.094,0.393-0.098,0.833-0.033,1.205c0.232,1.337-2.438,2.022-2.664,0.718c-0.246-1.421,0.053-3.037,1.27-3.945    c1.506-1.125,3.234-0.373,4.035,1.147C12.122,27.999,9.602,29.033,9.009,27.914z M15.252,26.033    c0.078-0.631,0.891-1.07,1.469-1.07c0.463,0,0.92,0,1.379,0c0.515,0,1.316,0.162,1.23,0.859c-0.08,0.629-0.895,1.067-1.473,1.067    c-0.459,0-0.92,0-1.379,0C15.967,26.89,15.164,26.727,15.252,26.033z M18.012,36.307c-0.342,0.113-1.162,0.21-1.419-0.157    c-0.786-1.124-1.021-2.468-0.786-3.807c0.16-0.927,2.851-1.382,2.666-0.329c-0.071,0.42-0.074,0.854-0.033,1.279    c0.211-0.121,0.424-0.242,0.631-0.373c0.426-0.273,1.934-0.734,2.159,0.049C21.816,34.992,19.517,35.801,18.012,36.307z     M28.171,5.541c0.394-0.476,1.18-0.675,1.769-0.689c0.343-0.005,1.084,0.152,0.682,0.637c-0.139,0.169,0.033,0.422,0.107,0.59    c0.3,0.667-2.298,1.528-2.664,0.714C27.852,6.32,27.83,5.954,28.171,5.541z M28.348,15.011c0.366-0.473,1.215-0.657,1.771-0.676    c0.35-0.011,1.045,0.106,0.672,0.588c-0.563,0.725-1.02,1.589,0.087,2.003c0.581,0.213,0.007,0.687-0.286,0.842    c-0.507,0.271-1.305,0.514-1.873,0.299c-0.504-0.185-1.272-0.56-1.229-1.22C27.535,16.126,27.911,15.57,28.348,15.011z     M31.136,21.712c-0.044,0.721-0.468,1.288-0.946,1.793c-0.432,0.463-1.285,0.652-1.885,0.506    c-0.586-0.143-0.662-0.619-0.276-1.031c0.274-0.291,0.407-0.564,0.434-0.965C28.524,21.044,31.209,20.541,31.136,21.712z     M24.424,9.211c1.779,0-0.348,1.18-1.126,1.18C21.521,10.391,23.646,9.211,24.424,9.211z M25.142,26.439    c-0.296,0.647-1.083,0.87-1.734,0.826c-0.981-0.063-1.523-0.643-1.588-1.592c-0.045-0.662,0.959-1.064,1.464-1.1    c0.576-0.041,1.066,0.207,1.194,0.744C24.986,25.438,25.383,25.912,25.142,26.439z M31.878,31.914    c-0.395,0.48-1.181,0.674-1.769,0.689c-0.002,0-0.002,0-0.004,0c-0.082,0.031-0.219,0.078-0.218,0.076    c-0.013,0.01-0.28,0.175-0.376,0.246c-0.358,0.273-0.754,0.615-0.963,1.026c-0.115,0.22-0.168,0.409-0.18,0.573    c0.319-0.033,0.605,0.003,0.771,0.146c0.292,0.247,0.626,0.438,0.919,0.688c0.69,0.589-1.526,1.142-1.789,1.156    c-0.816,0.03-1.977,0.02-2.469-0.762c-0.355-0.57-0.009-1.309,0.328-1.798c1.101-1.608,3.143-2.621,5.067-2.675    C31.542,31.27,32.276,31.432,31.878,31.914z M33.245,28.236c-0.207,0.005-0.716,0.014-0.784-0.278    c-0.257-1.14-0.037-1.954,1.119-2.405c0.833-0.324,1.611-0.303,2.361-0.039c0.871,0.021,1.739,0.139,2.604,0.31    c0.267,0.055,0.732,0.258,0.38,0.588C37.388,27.844,35.287,28.223,33.245,28.236z" fill="#FFFFFF"/>
		<path d="M29.989,32.609C29.953,32.611,29.959,32.611,29.989,32.609L29.989,32.609z" fill="#FFFFFF"/>
	</g>
	<g id="Capa_1_2_">
	</g>
</g>
<g>
</g>
<g>
</g>
<g>
</g>
<g>
</g>
<g>
</g>
<g>
</g>
<g>
</g>
<g>
</g>
<g>
</g>
<g>
</g>
<g>
</g>
<g>
</g>
<g>
</g>
<g>
</g>
<g>
</g>
</svg>
