<?xml version="1.0" encoding="iso-8859-1"?>
<!-- Generator: Adobe Illustrator 18.0.0, SVG Export Plug-In . SVG Version: 6.00 Build 0)  -->
<!DOCTYPE svg PUBLIC "-//W3C//DTD SVG 1.1//EN" "http://www.w3.org/Graphics/SVG/1.1/DTD/svg11.dtd">
<svg xmlns="http://www.w3.org/2000/svg" xmlns:xlink="http://www.w3.org/1999/xlink" version="1.1" id="Capa_1" x="0px" y="0px" viewBox="0 0 55 55" style="enable-background:new 0 0 55 55;" xml:space="preserve" width="512px" height="512px">
<g>
	<path d="M27.518,13.521c0.195,0.195,0.451,0.293,0.707,0.293s0.512-0.098,0.707-0.293c0.391-0.391,0.391-1.023,0-1.414   c-1.239-1.239-1.239-3.254,0-4.493c2.018-2.019,2.018-5.303,0-7.321c-0.391-0.391-1.023-0.391-1.414,0s-0.391,1.023,0,1.414   c1.238,1.238,1.238,3.255,0,4.493C25.499,8.219,25.499,11.503,27.518,13.521z" fill="#FFFFFF"/>
	<path d="M19,11.067c0,0.927,0.361,1.799,1.018,2.454c0.195,0.195,0.451,0.293,0.707,0.293s0.512-0.098,0.708-0.293   c0.39-0.391,0.39-1.023,0-1.414C21.153,11.829,21,11.46,21,11.067c0-0.394,0.153-0.763,0.432-1.041   c1.354-1.354,1.354-3.556,0-4.909c-0.391-0.391-1.023-0.391-1.414,0s-0.391,1.023,0,1.414c0.574,0.574,0.574,1.507,0,2.081   C19.361,9.268,19,10.14,19,11.067z" fill="#FFFFFF"/>
	<path d="M34,11.067c0,0.927,0.361,1.799,1.018,2.454c0.195,0.195,0.451,0.293,0.707,0.293s0.512-0.098,0.708-0.293   c0.39-0.391,0.39-1.023,0-1.414C36.153,11.829,36,11.46,36,11.067c0-0.394,0.153-0.763,0.432-1.041   c1.354-1.354,1.354-3.556,0-4.909c-0.391-0.391-1.023-0.391-1.414,0s-0.391,1.023,0,1.414c0.574,0.574,0.574,1.507,0,2.081   C34.361,9.268,34,10.14,34,11.067z" fill="#FFFFFF"/>
	<path d="M25.913,47.895c0,0,1.67,0.105,1.679,0.105l1.654-0.105c3.667-0.46,7.039-2.412,9.243-5.415   c0.604-0.822,1.15-1.634,1.654-2.435c0.136,0.008,0.261,0.033,0.403,0.033c3.429,0,8.124-2.312,9.303-7.313   c0.55-2.33,0.415-4.065-0.412-5.306c-1.023-1.534-2.802-1.923-4.451-2.201c0.076-3.262-0.579-5.671-1.17-6.839   C43.637,18.067,43.097,17,42.126,17H13.033c-0.971,0-1.511,1.067-1.689,1.418C9.943,21.185,8.169,30.9,16.67,42.479   C18.875,45.482,22.245,47.435,25.913,47.895z M44.851,27.262c1.256,0.218,2.382,0.497,2.921,1.306c0.496,0.742,0.539,2,0.13,3.736   c-0.866,3.673-4.117,5.396-6.571,5.714C43.507,34.016,44.511,30.349,44.851,27.262z M15.687,22.976   c0.101-0.543,0.619-0.906,1.166-0.802c0.543,0.101,0.902,0.622,0.801,1.165c-0.323,1.744,0.108,3.64,1.153,5.071   c0.326,0.446,0.228,1.072-0.218,1.397C18.412,29.938,18.205,30,18.001,30c-0.309,0-0.613-0.143-0.809-0.41   C15.809,27.693,15.26,25.283,15.687,22.976z" fill="#FFFFFF"/>
	<path d="M42.213,40.504c-0.627,1.032-1.322,2.084-2.111,3.159c-2.16,2.941-5.322,5.029-8.855,5.893h-7.333   c-3.534-0.863-6.695-2.951-8.855-5.893c-0.797-1.085-1.497-2.147-2.129-3.189C8.963,41.355,4,43.057,4,46.065   C4,50.574,15.64,55,27.5,55S51,50.574,51,46.065C51,43.085,46.119,41.387,42.213,40.504z" fill="#FFFFFF"/>
</g>
<g>
</g>
<g>
</g>
<g>
</g>
<g>
</g>
<g>
</g>
<g>
</g>
<g>
</g>
<g>
</g>
<g>
</g>
<g>
</g>
<g>
</g>
<g>
</g>
<g>
</g>
<g>
</g>
<g>
</g>
</svg>
