<?xml version="1.0" encoding="iso-8859-1"?>
<!-- Generator: Adobe Illustrator 18.0.0, SVG Export Plug-In . SVG Version: 6.00 Build 0)  -->
<!DOCTYPE svg PUBLIC "-//W3C//DTD SVG 1.1//EN" "http://www.w3.org/Graphics/SVG/1.1/DTD/svg11.dtd">
<svg xmlns="http://www.w3.org/2000/svg" xmlns:xlink="http://www.w3.org/1999/xlink" version="1.1" id="Capa_1" x="0px" y="0px" viewBox="0 0 60 60" style="enable-background:new 0 0 60 60;" xml:space="preserve" width="512px" height="512px">
<path d="M56.28,30.159c0.124-0.423,0.196-0.852,0.196-1.287c0-0.667-0.165-1.333-0.479-1.99c0.312-0.661,0.479-1.34,0.479-2.033  c0-0.661-0.162-1.323-0.471-1.974c0.31-0.658,0.471-1.335,0.471-2.025c0-0.84-0.252-1.682-0.779-2.548  C52.354,13.414,41.786,10,30,10S7.646,13.414,4.272,18.349c-0.497,0.82-0.749,1.662-0.749,2.502c0,0.685,0.166,1.357,0.479,2.01  c-0.314,0.656-0.479,1.323-0.479,1.99c0,0.69,0.167,1.366,0.484,2.023c-0.317,0.66-0.484,1.33-0.484,2  c0,0.423,0.068,0.84,0.188,1.25C1.258,31.754,0,33.741,0,36.048C0,42.768,9.388,50,30,50c27.837,0,30-10.679,30-13.952  C60,33.78,58.74,31.805,56.28,30.159z M54.442,33.273c-0.012,0.071-0.032,0.143-0.05,0.214c-0.014,0.058-0.025,0.115-0.043,0.173  c-0.022,0.071-0.053,0.141-0.082,0.212c-0.023,0.059-0.043,0.117-0.07,0.176c-0.032,0.069-0.073,0.139-0.111,0.208  c-0.033,0.06-0.062,0.12-0.098,0.18c-0.041,0.067-0.09,0.133-0.136,0.2c-0.043,0.063-0.083,0.125-0.13,0.188  c-0.049,0.064-0.105,0.128-0.158,0.192c-0.053,0.064-0.104,0.129-0.161,0.193c-0.057,0.063-0.122,0.126-0.184,0.189  c-0.063,0.064-0.123,0.129-0.19,0.193c-0.066,0.063-0.139,0.125-0.209,0.187c-0.072,0.064-0.14,0.127-0.216,0.191  c-0.076,0.063-0.159,0.125-0.239,0.188c-0.079,0.062-0.155,0.124-0.238,0.186c-0.084,0.062-0.176,0.124-0.264,0.186  c-0.087,0.061-0.171,0.122-0.262,0.182c-0.093,0.062-0.193,0.122-0.29,0.183c-0.095,0.059-0.186,0.119-0.284,0.178  c-0.103,0.062-0.214,0.123-0.322,0.184c-0.1,0.057-0.196,0.114-0.299,0.17c-0.112,0.061-0.23,0.12-0.346,0.18  c-0.107,0.056-0.212,0.112-0.323,0.167c-0.116,0.057-0.239,0.113-0.359,0.17c-0.118,0.056-0.232,0.112-0.354,0.167  c-0.125,0.056-0.256,0.111-0.384,0.167c-0.124,0.053-0.244,0.108-0.371,0.16c-0.133,0.055-0.272,0.108-0.408,0.162  c-0.13,0.051-0.257,0.104-0.39,0.154c-0.141,0.053-0.288,0.104-0.432,0.157c-0.135,0.049-0.268,0.099-0.407,0.147  c-0.147,0.051-0.3,0.1-0.451,0.15c-0.143,0.047-0.282,0.095-0.428,0.141c-0.152,0.048-0.309,0.094-0.464,0.14  c-0.151,0.046-0.299,0.092-0.453,0.137c-0.159,0.046-0.324,0.089-0.486,0.134c-0.156,0.043-0.309,0.087-0.467,0.128  c-0.164,0.043-0.335,0.084-0.502,0.125c-0.072,0.018-0.143,0.036-0.215,0.053C43.68,39.527,44,38.802,44,38v-0.09  c4.791-1.205,8.399-2.924,10.468-4.935c-0.002,0.043-0.006,0.086-0.01,0.129C54.453,33.16,54.451,33.217,54.442,33.273z M30,39.549  c0.826,0,1.664-0.021,2.527-0.056c0.501,0.891,1.327,1.564,2.323,1.866c-0.185,0.014-0.371,0.027-0.558,0.04  c-0.152,0.01-0.302,0.023-0.455,0.032c-0.258,0.016-0.521,0.027-0.782,0.04c-0.159,0.008-0.316,0.018-0.476,0.024  c-0.225,0.009-0.453,0.014-0.68,0.021c-0.2,0.006-0.398,0.014-0.599,0.018c-0.43,0.009-0.863,0.013-1.3,0.013  c-13.926,0-24.348-4.527-24.471-8.604C9.507,36.817,18.975,39.549,30,39.549z M45.755,29.412c3.929-1.167,6.91-2.708,8.718-4.471  c-0.098,2.535-4.232,5.231-10.473,6.888v-1.933c0.587-0.147,1.149-0.305,1.7-0.468C45.718,29.423,45.736,29.417,45.755,29.412z   M44,35.85v-1.961c4.791-1.205,8.398-2.925,10.468-4.935C54.382,31.49,50.25,34.191,44,35.85z M39.721,40.77  c-0.216,0.036-0.437,0.069-0.656,0.103c-0.155,0.024-0.307,0.049-0.463,0.072c-0.226,0.033-0.456,0.062-0.685,0.092  c0.132-0.073,0.265-0.143,0.387-0.23c0.09-0.064,0.169-0.138,0.252-0.208c0.12-0.101,0.239-0.201,0.346-0.315  c0.023-0.025,0.053-0.044,0.076-0.069c0.247,0.225,0.534,0.404,0.844,0.537C39.788,40.758,39.756,40.764,39.721,40.77z   M33.577,24.774c9.265,0,16.188-2.776,16.188-5.259c0-0.553,0.447-1,1-1s1,0.447,1,1c0,4.715-9.371,7.259-18.188,7.259  c-0.553,0-1-0.447-1-1S33.024,24.774,33.577,24.774z M32,37.515c-0.483,0.016-0.951,0.02-1.421,0.024  c0.506-0.012,0.989-0.123,1.421-0.329V37.515z M30.436,37.541c-0.144,0.001-0.294,0.007-0.436,0.007  c-12.369,0-21.971-3.571-24.052-7.226c-0.005-0.008-0.007-0.017-0.013-0.024c-0.263-0.469-0.406-0.939-0.41-1.403  c3.639,3.541,11.89,6.16,21.781,6.57C27.844,36.671,29.04,37.516,30.436,37.541z M10.829,28.183c0.117,0.05,0.232,0.1,0.352,0.149  c0.162,0.066,0.326,0.13,0.491,0.194c0.292,0.113,0.589,0.224,0.893,0.332c0.052,0.018,0.103,0.038,0.155,0.056  c3.456,1.208,7.693,2.064,12.369,2.422c0.088,0.007,0.177,0.014,0.265,0.02c0.543,0.039,1.09,0.074,1.645,0.1v1.997  c-12.618-0.602-21.348-4.878-21.476-8.522C6.78,26.146,8.602,27.243,10.829,28.183z M14,19.548c0-1.654,1.346-3,3-3h3  c0.352,0,0.686,0.072,1,0.184v-0.184c0-1.654,1.346-3,3-3h3c1.654,0,3,1.346,3,3v3c0,1.654-1.346,3-3,3h-3  c-0.352,0-0.686-0.072-1-0.184v0.184c0,1.654-1.346,3-3,3h-3c-1.654,0-3-1.346-3-3V19.548z" fill="#FFFFFF"/>
<g>
</g>
<g>
</g>
<g>
</g>
<g>
</g>
<g>
</g>
<g>
</g>
<g>
</g>
<g>
</g>
<g>
</g>
<g>
</g>
<g>
</g>
<g>
</g>
<g>
</g>
<g>
</g>
<g>
</g>
</svg>
