<?xml version="1.0" encoding="iso-8859-1"?>
<!-- Generator: Adobe Illustrator 19.0.0, SVG Export Plug-In . SVG Version: 6.00 Build 0)  -->
<svg xmlns="http://www.w3.org/2000/svg" xmlns:xlink="http://www.w3.org/1999/xlink" version="1.1" id="Capa_1" x="0px" y="0px" viewBox="0 0 489.9 489.9" style="enable-background:new 0 0 489.9 489.9;" xml:space="preserve" width="512px" height="512px">
<g>
	<g>
		<g>
			<path d="M160.618,141.6c4.3,0,7.8-3.5,7.8-7.8V57.2c0-4.3-3.5-7.8-7.8-7.8s-7.8,3.5-7.8,7.8v76.6     C152.818,138.1,156.318,141.6,160.618,141.6z" fill="#FFFFFF"/>
			<path d="M241.018,141.6c4.3,0,7.8-3.5,7.8-7.8V7.8c0-4.3-3.5-7.8-7.8-7.8s-7.8,3.5-7.8,7.8v126     C233.318,138.1,236.818,141.6,241.018,141.6z" fill="#FFFFFF"/>
			<path d="M321.518,141.6c4.3,0,7.8-3.5,7.8-7.8V57.2c0-4.3-3.5-7.8-7.8-7.8s-7.8,3.5-7.8,7.8v76.6     C313.318,138.1,316.818,141.6,321.518,141.6z" fill="#FFFFFF"/>
			<path d="M461.418,96.9c-3.1-3.1-8.2-3.1-11.3,0l-141.4,141.5c-11.7-3.5-29.5,3.1-44.3,17.5c-17.9,17.9-24.1,40.8-13.6,51.3     s33.4,4.3,51.3-13.6c14.4-14.4,21.4-32.3,17.5-44.3l141.5-141.5C464.618,105.1,464.618,100,461.418,96.9z" fill="#FFFFFF"/>
			<path d="M28.418,295.9c14.8,109.6,104.2,194,212.6,194s197.9-84.4,212.6-194c-54.4,36.9-193.6,38.5-212.6,38.5     S82.818,332.9,28.418,295.9z" fill="#FFFFFF"/>
			<path d="M232.118,314.6c-12.1-19.4-4.7-49,18.7-72.3c15.2-15.2,34.2-24.1,50.9-24.5l7.8-7.8c-21.8-1.6-44.7-2.3-68.4-2.3     c-118.6,0-215,24.1-215,53.6C26.118,290.1,117.418,313.4,232.118,314.6z" fill="#FFFFFF"/>
			<path d="M377.518,219.7l-36.9,36.9c0,16.7-8.9,35.4-24.5,50.9c-1.6,1.6-2.7,2.7-4.3,3.9c84-7.4,144.2-27.2,144.2-50.5     C456.018,244.6,425.318,229.5,377.518,219.7z" fill="#FFFFFF"/>
		</g>
	</g>
</g>
<g>
</g>
<g>
</g>
<g>
</g>
<g>
</g>
<g>
</g>
<g>
</g>
<g>
</g>
<g>
</g>
<g>
</g>
<g>
</g>
<g>
</g>
<g>
</g>
<g>
</g>
<g>
</g>
<g>
</g>
</svg>
