<?xml version="1.0" encoding="iso-8859-1"?>
<!-- Generator: Adobe Illustrator 18.0.0, SVG Export Plug-In . SVG Version: 6.00 Build 0)  -->
<!DOCTYPE svg PUBLIC "-//W3C//DTD SVG 1.1//EN" "http://www.w3.org/Graphics/SVG/1.1/DTD/svg11.dtd">
<svg xmlns="http://www.w3.org/2000/svg" xmlns:xlink="http://www.w3.org/1999/xlink" version="1.1" id="Capa_1" x="0px" y="0px" viewBox="0 0 59 59" style="enable-background:new 0 0 59 59;" xml:space="preserve" width="512px" height="512px">
<g>
	<path d="M30,19c-4.878,0-9,2.29-9,5c0,0.13,0.018,0.259,0.036,0.387C23.729,23.348,26.802,22.8,30,22.8s6.271,0.548,8.964,1.587   C38.982,24.259,39,24.13,39,24C39,21.29,34.878,19,30,19z" fill="#FFFFFF"/>
	<g>
		<path d="M29.5,4C13.233,4,0,13.421,0,25v9c0,11.579,13.233,21,29.5,21S59,45.579,59,33.996V25C59,13.421,45.767,4,29.5,4z     M26.687,41.931c-0.022,0-0.045-0.001-0.068-0.002c-1.888-0.126-3.765-0.379-5.583-0.745c-0.664,1.047-1.801,1.783-3.162,1.953    v1.03c0,1.952-1.589,3.541-3.542,3.541c-1.953,0-3.542-1.589-3.542-3.541v-3.005c-1.834-1.298-3.282-3.127-4.108-5.2    c-0.216-0.544-0.265-1.131-0.184-1.72C5.132,33,3.921,31.61,2.903,30.106c-0.31-0.457-0.19-1.079,0.268-1.389    c0.458-0.31,1.079-0.189,1.389,0.268c0.8,1.181,1.736,2.281,2.777,3.291c0.576-0.744,1.374-1.311,2.223-1.544    c2.118-0.585,4.206,0.585,5.09,2.806c0.246,0.62,1.649,1.3,2.68,1.3l0.112-0.003c2.233-0.105,4.225,1.87,4.225,4.165    c0,0.089-0.019,0.172-0.024,0.259c1.667,0.325,3.382,0.558,5.111,0.673c0.551,0.037,0.968,0.514,0.931,1.064    C27.649,41.525,27.209,41.931,26.687,41.931z M32.513,30.817c-0.178,0.026-0.358,0.048-0.539,0.069    c-0.18,0.02-0.361,0.036-0.544,0.051c-0.137,0.011-0.273,0.023-0.412,0.031C30.682,30.988,30.343,31,30,31    s-0.682-0.012-1.018-0.032c-0.139-0.008-0.275-0.02-0.412-0.031c-0.182-0.015-0.364-0.031-0.544-0.051    c-0.182-0.02-0.361-0.043-0.539-0.069c-0.106-0.015-0.21-0.033-0.315-0.05C22.42,29.99,19,27.299,19,24c0-3.925,4.832-7,11-7    s11,3.075,11,7c0,3.299-3.42,5.99-8.172,6.767C32.723,30.784,32.619,30.802,32.513,30.817z M54.535,31.677    c-5.561,6.051-13.051,8.479-18.355,9.449c-0.061,0.012-0.122,0.017-0.181,0.017c-0.474,0-0.895-0.338-0.983-0.82    c-0.099-0.543,0.261-1.063,0.804-1.163c5.004-0.916,12.057-3.192,17.243-8.836c0.375-0.408,1.007-0.433,1.413-0.06    C54.882,30.638,54.909,31.27,54.535,31.677z" fill="#FFFFFF"/>
		<path d="M17.188,40.053c-0.336,0.054-0.658,0.078-0.963,0.078c-2.688,0-4.167-1.865-4.234-1.953    c-0.338-0.437-0.258-1.064,0.178-1.403c0.435-0.335,1.058-0.259,1.398,0.172c0.055,0.069,1.213,1.461,3.307,1.132    c0.551-0.095,1.058,0.285,1.145,0.83C18.105,39.454,17.734,39.966,17.188,40.053z" fill="#FFFFFF"/>
	</g>
</g>
<g>
</g>
<g>
</g>
<g>
</g>
<g>
</g>
<g>
</g>
<g>
</g>
<g>
</g>
<g>
</g>
<g>
</g>
<g>
</g>
<g>
</g>
<g>
</g>
<g>
</g>
<g>
</g>
<g>
</g>
</svg>
