<?xml version="1.0" encoding="iso-8859-1"?>
<!-- Generator: Adobe Illustrator 18.0.0, SVG Export Plug-In . SVG Version: 6.00 Build 0)  -->
<!DOCTYPE svg PUBLIC "-//W3C//DTD SVG 1.1//EN" "http://www.w3.org/Graphics/SVG/1.1/DTD/svg11.dtd">
<svg xmlns="http://www.w3.org/2000/svg" xmlns:xlink="http://www.w3.org/1999/xlink" version="1.1" id="Capa_1" x="0px" y="0px" viewBox="0 0 58.062 58.062" style="enable-background:new 0 0 58.062 58.062;" xml:space="preserve" width="512px" height="512px">
<path d="M57.432,24.571c-0.785-1.249-2.122-1.995-3.575-1.995c-0.113,0-0.227,0.005-0.336,0.014c0.097-1.217-0.346-2.432-1.214-3.3  c-0.872-0.872-2.11-1.312-3.3-1.214c0.097-1.217-0.346-2.432-1.214-3.3c-0.872-0.872-2.121-1.317-3.3-1.215  c0.097-1.217-0.346-2.431-1.214-3.301c-0.793-0.791-1.846-1.227-2.964-1.227c-0.114,0-0.228,0.005-0.337,0.014  c0.097-1.218-0.346-2.432-1.214-3.3c-0.872-0.872-2.109-1.315-3.3-1.214c0.124-1.554-0.631-3.063-1.982-3.911  c-1.311-0.825-3.115-0.816-4.419,0.018c-1.35,0.861-2.083,2.335-1.956,3.893c-1.219-0.1-2.427,0.344-3.3,1.215  c-0.879,0.881-1.313,2.069-1.214,3.299c-1.231-0.098-2.428,0.344-3.299,1.215c-0.867,0.867-1.312,2.085-1.215,3.3  c-1.222-0.097-2.429,0.344-3.299,1.214c-0.867,0.867-1.311,2.084-1.215,3.3c-1.229-0.096-2.428,0.345-3.301,1.215  c-0.879,0.881-1.313,2.069-1.214,3.299c-1.23-0.094-2.428,0.345-3.299,1.215c-0.867,0.867-1.312,2.085-1.215,3.301  c-1.563-0.133-3.064,0.636-3.909,1.98c-0.84,1.335-0.84,3.061,0.001,4.396c0.785,1.248,2.121,1.994,3.573,1.994  c0.113,0,0.227-0.005,0.335-0.014c-0.096,1.217,0.348,2.434,1.215,3.299c0.872,0.872,2.109,1.309,3.3,1.215  c-0.097,1.217,0.347,2.433,1.214,3.3c0.872,0.873,2.118,1.314,3.3,1.214c-0.096,1.216,0.348,2.433,1.214,3.3  c0.872,0.871,2.112,1.312,3.3,1.215c-0.096,1.217,0.348,2.434,1.215,3.299c0.872,0.872,2.119,1.313,3.299,1.215  c-0.127,1.558,0.604,3.03,1.953,3.892c0.659,0.421,1.43,0.644,2.228,0.644c0.786,0,1.545-0.216,2.195-0.625  c1.35-0.848,2.105-2.357,1.981-3.91c1.231,0.091,2.429-0.344,3.3-1.214c0.868-0.868,1.311-2.083,1.214-3.3  c1.229,0.095,2.429-0.344,3.3-1.215c0.868-0.868,1.311-2.083,1.214-3.299c1.228,0.097,2.429-0.344,3.302-1.215  c0.867-0.869,1.309-2.083,1.213-3.3c1.23,0.098,2.428-0.344,3.3-1.214c0.868-0.868,1.311-2.083,1.214-3.3  c1.229,0.091,2.428-0.344,3.3-1.215c0.868-0.868,1.311-2.083,1.214-3.3c1.583,0.124,3.066-0.637,3.911-1.981  C58.271,27.63,58.271,25.906,57.432,24.571z M44.334,21.337l0.354-0.354c0.391-0.391,1.023-0.391,1.414,0s0.391,1.023,0,1.414  l-0.354,0.354c-0.195,0.195-0.451,0.293-0.707,0.293s-0.512-0.098-0.707-0.293C43.943,22.36,43.943,21.728,44.334,21.337z   M42.21,26.287l-0.354,0.354c-0.195,0.195-0.451,0.293-0.707,0.293s-0.512-0.098-0.707-0.293c-0.391-0.391-0.391-1.023,0-1.414  l0.354-0.354c0.391-0.391,1.023-0.391,1.414,0S42.6,25.897,42.21,26.287z M38.32,30.177l-0.354,0.354  c-0.195,0.196-0.451,0.294-0.708,0.294c-0.256,0-0.511-0.098-0.706-0.292c-0.392-0.39-0.392-1.023-0.002-1.414l0.354-0.354  c0.391-0.392,1.023-0.392,1.414-0.002C38.71,29.152,38.71,29.786,38.32,30.177z M34.429,32.655c0.391,0.391,0.391,1.023,0,1.414  l-0.354,0.354c-0.195,0.195-0.451,0.293-0.707,0.293s-0.512-0.098-0.707-0.293c-0.391-0.391-0.391-1.023,0-1.414l0.354-0.354  C33.405,32.265,34.038,32.265,34.429,32.655z M30.537,36.547c0.391,0.391,0.391,1.023,0,1.414l-0.354,0.354  c-0.195,0.195-0.451,0.293-0.707,0.293s-0.512-0.098-0.707-0.293c-0.391-0.391-0.391-1.023,0-1.414l0.354-0.354  C29.514,36.156,30.146,36.156,30.537,36.547z M26.023,33.446L25.67,33.8c-0.195,0.195-0.451,0.293-0.707,0.293  s-0.512-0.098-0.707-0.293c-0.391-0.391-0.391-1.023,0-1.414l0.354-0.354c0.391-0.391,1.023-0.391,1.414,0  S26.414,33.056,26.023,33.446z M22.133,37.337l-0.354,0.354c-0.195,0.195-0.451,0.293-0.707,0.293s-0.512-0.098-0.707-0.293  c-0.391-0.391-0.391-1.023,0-1.414l0.354-0.354c0.391-0.391,1.023-0.391,1.414,0S22.523,36.946,22.133,37.337z M19.742,29.285  c-0.391-0.391-0.391-1.023,0-1.414l0.354-0.354c0.391-0.391,1.023-0.391,1.414,0s0.391,1.023,0,1.414l-0.354,0.354  c-0.195,0.195-0.451,0.293-0.707,0.293S19.937,29.481,19.742,29.285z M23.633,23.982l0.354-0.354c0.391-0.391,1.023-0.391,1.414,0  s0.391,1.023,0,1.414l-0.354,0.354c-0.195,0.195-0.451,0.293-0.707,0.293s-0.512-0.098-0.707-0.293  C23.242,25.005,23.242,24.372,23.633,23.982z M27.523,20.091l0.354-0.354c0.391-0.391,1.023-0.391,1.414,0s0.391,1.023,0,1.414  l-0.354,0.354c-0.195,0.195-0.451,0.293-0.707,0.293s-0.512-0.098-0.707-0.293C27.133,21.114,27.133,20.482,27.523,20.091z   M31.414,16.2l0.354-0.354c0.391-0.391,1.023-0.391,1.414,0c0.391,0.391,0.391,1.023,0,1.414l-0.354,0.354  c-0.195,0.195-0.451,0.293-0.707,0.293s-0.512-0.098-0.707-0.293C31.023,17.224,31.023,16.591,31.414,16.2z M33.805,25.665  l-0.354,0.354c-0.195,0.195-0.451,0.293-0.707,0.293s-0.512-0.098-0.707-0.293c-0.391-0.391-0.391-1.023,0-1.414l0.354-0.354  c0.391-0.391,1.023-0.391,1.414,0S34.195,25.275,33.805,25.665z M28.146,29.909c-0.391-0.391-0.391-1.023,0-1.414l0.354-0.354  c0.391-0.391,1.023-0.391,1.414,0s0.391,1.023,0,1.414l-0.354,0.354c-0.195,0.195-0.451,0.293-0.707,0.293  S28.342,30.105,28.146,29.909z M39.819,16.822l0.354-0.354c0.391-0.391,1.023-0.391,1.414,0s0.391,1.023,0,1.414l-0.354,0.354  c-0.195,0.195-0.451,0.293-0.707,0.293s-0.512-0.098-0.707-0.293C39.429,17.846,39.429,17.213,39.819,16.822z M37.696,21.774  l-0.354,0.354c-0.195,0.195-0.451,0.293-0.707,0.293s-0.512-0.098-0.707-0.293c-0.391-0.391-0.391-1.023,0-1.414l0.354-0.354  c0.391-0.391,1.023-0.391,1.414,0S38.087,21.383,37.696,21.774z M35.306,12.309l0.354-0.354c0.391-0.391,1.023-0.391,1.414,0  s0.391,1.023,0,1.414l-0.354,0.354c-0.195,0.195-0.451,0.293-0.707,0.293s-0.512-0.098-0.707-0.293  C34.915,13.332,34.915,12.699,35.306,12.309z M30.791,7.794l0.354-0.354c0.391-0.391,1.023-0.391,1.414,0s0.391,1.023,0,1.414  l-0.354,0.354c-0.195,0.195-0.451,0.293-0.707,0.293s-0.512-0.098-0.707-0.293C30.4,8.818,30.4,8.185,30.791,7.794z M26.901,11.686  l0.354-0.354c0.391-0.391,1.023-0.391,1.414,0s0.391,1.023,0,1.414L28.315,13.1c-0.195,0.195-0.451,0.293-0.707,0.293  s-0.512-0.098-0.707-0.293C26.511,12.709,26.511,12.076,26.901,11.686z M23.011,15.575l0.354-0.354  c0.392-0.39,1.024-0.39,1.414,0.002c0.39,0.391,0.39,1.024-0.002,1.414l-0.354,0.354c-0.195,0.194-0.45,0.292-0.706,0.292  c-0.257,0-0.513-0.098-0.708-0.294C22.619,16.599,22.619,15.965,23.011,15.575z M19.119,19.467l0.354-0.354  c0.391-0.391,1.023-0.391,1.414,0s0.391,1.023,0,1.414l-0.354,0.354c-0.195,0.195-0.451,0.293-0.707,0.293s-0.512-0.098-0.707-0.293  C18.728,20.49,18.728,19.858,19.119,19.467z M15.227,23.359l0.354-0.354c0.391-0.391,1.023-0.391,1.414,0s0.391,1.023,0,1.414  l-0.354,0.354c-0.195,0.195-0.451,0.293-0.707,0.293s-0.512-0.098-0.707-0.293C14.837,24.382,14.837,23.749,15.227,23.359z   M9.214,32.2L8.86,32.554c-0.195,0.195-0.451,0.293-0.707,0.293s-0.512-0.098-0.707-0.293c-0.391-0.391-0.391-1.023,0-1.414  L7.8,30.786c0.391-0.391,1.023-0.391,1.414,0S9.604,31.81,9.214,32.2z M11.337,27.249l0.354-0.354c0.391-0.391,1.023-0.391,1.414,0  s0.391,1.023,0,1.414l-0.354,0.354c-0.195,0.195-0.451,0.293-0.707,0.293s-0.512-0.098-0.707-0.293  C10.946,28.273,10.946,27.64,11.337,27.249z M13.728,36.714l-0.354,0.354c-0.195,0.195-0.451,0.293-0.707,0.293  s-0.512-0.098-0.707-0.293c-0.391-0.391-0.391-1.023,0-1.414l0.354-0.354c0.391-0.391,1.023-0.391,1.414,0  S14.119,36.323,13.728,36.714z M15.851,31.763l0.354-0.354c0.391-0.391,1.023-0.391,1.414,0s0.391,1.023,0,1.414l-0.354,0.354  c-0.195,0.195-0.451,0.293-0.707,0.293s-0.512-0.098-0.707-0.293C15.461,32.786,15.461,32.153,15.851,31.763z M18.242,41.228  l-0.354,0.354c-0.195,0.195-0.451,0.293-0.707,0.293s-0.512-0.098-0.707-0.293c-0.391-0.391-0.391-1.023,0-1.414l0.354-0.354  c0.391-0.391,1.023-0.391,1.414,0S18.633,40.837,18.242,41.228z M22.756,45.742l-0.354,0.354c-0.195,0.195-0.451,0.293-0.707,0.293  s-0.512-0.098-0.707-0.293c-0.391-0.391-0.391-1.023,0-1.414l0.354-0.354c0.391-0.391,1.023-0.391,1.414,0  S23.146,45.352,22.756,45.742z M24.879,40.791l0.354-0.354c0.391-0.391,1.023-0.391,1.414,0s0.391,1.023,0,1.414l-0.354,0.354  c-0.195,0.195-0.451,0.293-0.707,0.293s-0.512-0.098-0.707-0.293C24.488,41.815,24.488,41.182,24.879,40.791z M27.27,50.256  l-0.354,0.354c-0.195,0.195-0.451,0.293-0.707,0.293s-0.512-0.098-0.707-0.293c-0.391-0.391-0.391-1.023,0-1.414l0.354-0.354  c0.391-0.391,1.023-0.391,1.414,0S27.661,49.865,27.27,50.256z M31.161,46.365l-0.354,0.354c-0.195,0.195-0.451,0.293-0.707,0.293  s-0.512-0.098-0.707-0.293c-0.391-0.391-0.391-1.023,0-1.414l0.354-0.354c0.391-0.391,1.023-0.391,1.414,0  S31.552,45.975,31.161,46.365z M35.052,42.475l-0.354,0.354c-0.195,0.195-0.451,0.293-0.707,0.293s-0.512-0.098-0.707-0.293  c-0.391-0.391-0.391-1.023,0-1.414l0.354-0.354c0.391-0.391,1.023-0.391,1.414,0S35.442,42.084,35.052,42.475z M38.942,38.583  l-0.354,0.354c-0.195,0.195-0.451,0.293-0.707,0.293s-0.512-0.098-0.707-0.293c-0.391-0.391-0.391-1.023,0-1.414l0.354-0.354  c0.391-0.391,1.023-0.391,1.414,0S39.333,38.193,38.942,38.583z M42.833,34.694l-0.354,0.354c-0.195,0.194-0.45,0.292-0.706,0.292  c-0.257,0-0.513-0.098-0.708-0.294c-0.39-0.391-0.39-1.024,0.002-1.414l0.354-0.354c0.392-0.389,1.024-0.391,1.414,0.002  C43.224,33.67,43.224,34.304,42.833,34.694z M46.724,30.802l-0.354,0.354c-0.195,0.195-0.451,0.293-0.707,0.293  s-0.512-0.098-0.707-0.293c-0.391-0.391-0.391-1.023,0-1.414l0.354-0.354c0.391-0.391,1.023-0.391,1.414,0  S47.115,30.411,46.724,30.802z M50.615,26.911l-0.354,0.354c-0.195,0.195-0.451,0.293-0.707,0.293s-0.512-0.098-0.707-0.293  c-0.391-0.391-0.391-1.023,0-1.414l0.354-0.354c0.391-0.391,1.023-0.391,1.414,0S51.006,26.521,50.615,26.911z" fill="#FFFFFF"/>
<g>
</g>
<g>
</g>
<g>
</g>
<g>
</g>
<g>
</g>
<g>
</g>
<g>
</g>
<g>
</g>
<g>
</g>
<g>
</g>
<g>
</g>
<g>
</g>
<g>
</g>
<g>
</g>
<g>
</g>
</svg>
